<?xml version="1.0" ?>
<!-- Uploaded to: SVG Repo, www.svgrepo.com, Generator: SVG Repo Mixer Tools -->
<svg width="800px" height="800px" viewBox="0 0 32 32" xmlns="http://www.w3.org/2000/svg">
<defs>
<style>.cls-1{fill:#04009a;}.cls-2{fill:#77acf1;}</style>
</defs>
<g data-name="1. Phone" id="_1._Phone">
<path class="cls-1" d="M18.21,32H7.79A4.8,4.8,0,0,1,3,27.21V4.79A4.8,4.8,0,0,1,7.79,0H18.21A4.8,4.8,0,0,1,23,4.79V5a1,1,0,0,1-2,0V4.79A2.79,2.79,0,0,0,18.21,2H7.79A2.79,2.79,0,0,0,5,4.79V27.21A2.79,2.79,0,0,0,7.79,30H18.21A2.79,2.79,0,0,0,21,27.21V25a1,1,0,0,1,2,0v2.21A4.8,4.8,0,0,1,18.21,32Z"/>
<path class="cls-2" d="M13,28a2,2,0,1,1,2-2A2,2,0,0,1,13,28Zm0-2Z"/>
<path class="cls-1" d="M16,6H10a1,1,0,0,1,0-2h6a1,1,0,0,1,0,2Z"/>
<rect class="cls-2" height="5" rx="1" width="4" x="20" y="8"/>
<path class="cls-1" d="M26,22H18a3,3,0,0,1-3-3V11a3,3,0,0,1,3-3h8a3,3,0,0,1,3,3v8A3,3,0,0,1,26,22ZM18,10a1,1,0,0,0-1,1v8a1,1,0,0,0,1,1h8a1,1,0,0,0,1-1V11a1,1,0,0,0-1-1Z"/>
<path class="cls-1" d="M21,18H20a1,1,0,0,1,0-2h1a1,1,0,0,1,0,2Z"/>
</g>
</svg>