<?xml version="1.0" encoding="utf-8" ?>
<svg baseProfile="full" height="512" version="1.1" width="1024" xmlns="http://www.w3.org/2000/svg" xmlns:ev="http://www.w3.org/2001/xml-events" xmlns:xlink="http://www.w3.org/1999/xlink"><defs /><polyline fill="white" points="731,607 730,608 719,608 718,609 708,609 707,610 700,610 699,611 691,611 690,612 684,612 683,613 677,613 676,614 669,614 668,615 663,615 662,616 656,616 655,617 650,617 649,618 644,618 643,619 638,619 637,620 632,620 631,621 626,621 625,622 621,622 620,623 616,623 615,624 611,624 610,625 606,625 605,626 601,626 600,627 596,627 595,628 591,628 590,629 587,629 586,630 582,630 581,631 578,631 577,632 573,632 572,633 568,633 567,634 564,634 563,635 560,635 559,636 555,636 554,637 551,637 550,638 546,638 545,639 542,639 541,640 538,640 537,641 533,641 532,642 529,642 528,643 525,643 524,644 521,644 520,645 517,645 516,646 513,646 512,647 509,647 508,648 506,648 505,649 502,649 501,650 498,650 497,651 495,651 494,652 491,652 490,653 487,653 486,654 484,654 483,655 480,655 479,656 477,656 476,657 473,657 472,658 470,658 469,659 467,659 466,660 463,660 462,661 460,661 459,662 457,662 456,663 454,663 453,664 451,664 450,665 448,665 447,666 445,666 444,667 442,667 441,668 439,668 438,669 436,669 435,670 433,670 432,671 430,671 429,672 427,672 426,673 424,673 423,674 421,674 420,675 419,675 418,676 416,676 415,677 413,677 412,678 410,678 409,679 407,679 406,680 405,680 404,681 402,681 401,682 399,682 398,683 397,683 396,684 395,684 394,685 392,685 391,686 390,686 389,687 387,687 386,688 385,688 384,689 382,689 381,690 380,690 379,691 378,691 377,692 375,692 374,693 373,693 372,694 371,694 370,695 368,695 367,696 366,696 365,697 364,697 363,698 362,698 361,699 359,699 358,700 357,700 356,701 355,701 354,702 353,702 352,703 351,703 350,704 349,704 348,705 347,705 346,706 345,706 344,707 343,707 342,708 341,708 340,709 339,709 338,710 337,710 336,711 335,711 333,713 332,713 330,715 329,715 327,717 327,718 326,719 326,720 325,721 325,725 326,726 326,727 329,730 330,730 331,731 336,731 337,730 339,730 340,729 341,729 342,728 343,728 345,726 346,726 347,725 348,725 349,724 350,724 351,723 352,723 353,722 354,722 355,721 356,721 357,720 358,720 359,719 360,719 361,718 362,718 363,717 364,717 365,716 366,716 367,715 368,715 369,714 370,714 371,713 373,713 374,712 375,712 376,711 377,711 378,710 380,710 381,709 382,709 383,708 384,708 385,707 387,707 388,706 389,706 390,705 391,705 392,704 394,704 395,703 396,703 397,702 399,702 400,701 401,701 402,700 404,700 405,699 406,699 407,698 409,698 410,697 411,697 412,696 414,696 415,695 416,695 417,694 419,694 420,693 422,693 423,692 425,692 426,691 427,691 428,690 430,690 431,689 433,689 434,688 436,688 437,687 438,687 439,686 442,686 443,685 444,685 445,684 448,684 449,683 450,683 451,682 453,682 454,681 457,681 458,680 460,680 461,679 463,679 464,678 466,678 467,677 469,677 470,676 473,676 474,675 476,675 477,674 479,674 480,673 483,673 484,672 486,672 487,671 490,671 491,670 493,670 494,669 497,669 498,668 500,668 501,667 504,667 505,666 508,666 509,665 511,665 512,664 515,664 516,663 518,663 519,662 522,662 523,661 526,661 527,660 530,660 531,659 534,659 535,658 538,658 539,657 542,657 543,656 546,656 547,655 550,655 551,654 554,654 555,653 559,653 560,652 563,652 564,651 567,651 568,650 572,650 573,649 576,649 577,648 581,648 582,647 586,647 587,646 590,646 591,645 595,645 596,644 600,644 601,643 605,643 606,642 610,642 611,641 615,641 616,640 620,640 621,639 625,639 626,638 630,638 631,637 636,637 637,636 642,636 643,635 648,635 649,634 654,634 655,633 661,633 662,632 669,632 670,631 676,631 677,630 684,630 685,629 693,629 694,628 702,628 703,627 712,627 713,626 723,626 724,625 738,625 739,624 779,624 780,623 783,623 784,622 785,622 788,619 788,613 787,612 787,611 786,611 784,609 781,609 780,608 771,608 770,607" /><polyline fill="white" points="472,246 471,247 466,247 465,248 460,248 459,249 456,249 455,250 452,250 451,251 449,251 448,252 445,252 444,253 442,253 441,254 439,254 438,255 436,255 435,256 433,256 432,257 430,257 429,258 427,258 426,259 425,259 424,260 422,260 421,261 420,261 419,262 417,262 416,263 415,263 414,264 413,264 412,265 411,265 410,266 408,266 407,267 406,267 405,268 404,268 403,269 402,269 401,270 400,270 399,271 398,271 397,272 396,272 395,273 394,273 393,274 392,274 391,275 390,275 389,276 387,276 386,277 385,277 384,278 383,278 382,279 381,279 380,280 379,280 378,281 377,281 376,282 375,282 374,283 373,283 371,285 370,285 369,286 368,286 367,287 366,287 365,288 364,288 363,289 362,289 361,290 360,290 359,291 358,291 357,292 356,292 355,293 354,293 353,294 352,294 351,295 350,295 349,296 348,296 347,297 346,297 344,299 343,299 342,300 341,300 340,301 339,301 338,302 337,302 335,304 334,304 333,305 332,305 330,307 329,307 328,308 327,308 325,310 324,310 323,311 322,311 320,313 319,313 317,315 316,315 315,316 314,316 312,318 311,318 309,320 308,320 306,322 305,322 303,324 302,324 300,326 299,326 296,329 295,329 292,332 291,332 289,334 288,334 285,337 284,337 280,341 279,341 276,344 275,344 271,348 270,348 266,352 265,352 260,357 259,357 253,363 252,363 244,371 243,371 214,400 214,401 209,406 209,407 206,410 206,411 203,414 203,415 201,417 201,418 200,419 200,420 198,422 198,423 197,424 197,425 196,426 196,427 195,428 195,429 194,430 194,431 193,432 193,433 192,434 192,435 191,436 191,437 190,438 190,440 189,441 189,444 188,445 188,457 189,458 189,459 190,460 190,461 191,462 191,463 193,465 193,466 194,467 195,467 197,469 198,469 199,470 201,470 202,471 206,471 206,469 205,468 205,467 204,466 204,465 203,464 203,461 202,460 202,455 203,454 203,451 204,450 204,448 205,447 205,446 206,445 206,443 207,442 207,441 208,440 208,439 210,437 210,436 211,435 211,434 212,433 212,432 214,430 214,429 216,427 216,426 219,423 219,422 223,418 223,417 229,411 229,410 251,388 252,388 260,380 261,380 267,374 268,374 273,369 274,369 278,365 279,365 283,361 284,361 288,357 289,357 292,354 293,354 296,351 297,351 299,349 300,349 303,346 304,346 307,343 308,343 310,341 311,341 313,339 314,339 316,337 317,337 319,335 320,335 322,333 323,333 325,331 326,331 328,329 329,329 330,328 331,328 333,326 334,326 336,324 337,324 338,323 339,323 341,321 342,321 343,320 344,320 346,318 347,318 348,317 349,317 350,316 351,316 353,314 354,314 355,313 356,313 357,312 358,312 359,311 360,311 362,309 363,309 364,308 365,308 366,307 367,307 368,306 369,306 370,305 371,305 372,304 373,304 374,303 375,303 376,302 377,302 378,301 379,301 380,300 381,300 382,299 383,299 384,298 385,298 386,297 387,297 388,296 389,296 390,295 391,295 392,294 393,294 394,293 395,293 396,292 397,292 398,291 399,291 400,290 401,290 402,289 403,289 404,288 406,288 407,287 408,287 409,286 410,286 411,285 412,285 413,284 415,284 416,283 417,283 418,282 419,282 420,281 422,281 423,280 424,280 425,279 427,279 428,278 429,278 430,277 432,277 433,276 435,276 436,275 438,275 439,274 441,274 442,273 444,273 445,272 447,272 448,271 451,271 452,270 454,270 455,269 458,269 459,268 462,268 463,267 467,267 468,266 473,266 474,265 480,265 481,264 489,264 490,265 496,265 497,266 500,266 501,267 504,267 505,268 507,268 508,269 509,269 510,270 511,270 512,271 513,271 514,272 515,272 517,274 518,274 524,280 524,281 526,283 526,284 527,285 527,286 528,287 528,289 529,290 529,293 530,294 530,300 531,301 531,309 530,310 530,317 529,318 529,322 528,323 528,326 527,327 527,329 526,330 526,333 525,334 525,336 524,337 524,339 523,340 523,341 522,342 522,344 521,345 521,346 520,347 520,348 519,349 519,351 518,352 518,353 517,354 517,355 516,356 516,357 515,358 515,359 514,360 514,361 513,362 513,363 512,364 512,365 511,366 511,367 510,368 510,369 509,370 509,371 508,372 508,373 507,374 507,375 506,376 506,377 504,379 504,380 503,381 503,382 502,383 502,384 500,386 500,387 499,388 499,389 497,391 497,392 496,393 496,394 494,396 494,397 492,399 492,400 490,402 490,403 487,406 487,407 482,412 482,413 477,418 477,419 471,425 471,426 445,452 444,452 437,459 436,459 431,464 430,464 426,468 425,468 422,471 421,471 417,475 416,475 414,477 413,477 410,480 409,480 407,482 406,482 404,484 403,484 401,486 400,486 398,488 397,488 395,490 394,490 392,492 391,492 390,493 389,493 387,495 386,495 385,496 384,496 383,497 382,497 380,499 379,499 378,500 377,500 376,501 375,501 374,502 373,502 372,503 371,503 370,504 369,504 368,505 367,505 366,506 365,506 364,507 363,507 362,508 361,508 360,509 359,509 358,510 357,510 356,511 355,511 354,512 353,512 352,513 350,513 349,514 348,514 347,515 346,515 345,516 343,516 342,517 341,517 340,518 339,518 338,519 336,519 335,520 334,520 333,521 331,521 330,522 329,522 328,523 326,523 325,524 323,524 322,525 321,525 320,526 318,526 317,527 316,526 316,525 317,524 317,522 318,521 318,520 319,519 319,517 320,516 320,515 321,514 321,513 322,512 322,510 323,509 323,508 324,507 324,506 325,505 325,503 326,502 326,501 327,500 327,499 328,498 328,497 329,496 329,494 330,493 330,492 331,491 331,490 332,489 332,488 333,487 333,486 334,485 334,484 335,483 335,481 336,480 336,479 337,478 337,477 338,476 338,475 339,474 339,473 340,472 340,471 341,470 341,469 342,468 342,467 343,466 343,465 344,464 344,463 345,462 345,461 346,460 346,459 347,458 347,457 348,456 348,455 349,454 349,453 350,452 350,451 351,450 351,448 352,447 352,446 353,445 353,444 355,442 355,440 356,439 356,438 357,437 357,436 358,435 358,434 359,433 359,432 360,431 360,430 361,429 361,428 362,427 362,426 363,425 363,424 364,423 364,422 366,420 366,419 367,418 367,417 368,416 368,415 369,414 369,413 370,412 370,411 371,410 371,409 372,408 372,407 373,406 373,405 374,404 374,403 375,402 375,401 376,400 376,399 377,398 377,397 378,396 378,395 379,394 379,393 381,391 381,390 382,389 382,388 383,387 383,386 384,385 384,384 385,383 385,382 386,381 386,380 387,379 387,378 388,377 388,376 389,375 389,374 391,372 391,371 392,370 392,369 393,368 393,367 394,366 394,365 395,364 395,363 397,361 397,360 398,359 398,358 399,357 399,356 400,355 400,354 401,353 401,352 402,351 402,350 404,348 404,347 405,346 405,345 406,344 406,343 407,342 407,341 408,340 408,339 409,338 409,337 411,335 411,334 412,333 412,332 413,331 413,330 414,329 414,328 415,327 415,326 417,324 417,323 418,322 418,321 419,320 419,319 420,318 420,317 421,316 421,311 420,310 420,309 417,306 416,306 415,305 409,305 408,306 407,306 402,311 402,312 401,313 401,314 399,316 399,317 398,318 398,319 396,321 396,322 395,323 395,324 394,325 394,326 392,328 392,329 391,330 391,331 389,333 389,334 388,335 388,336 387,337 387,338 386,339 386,340 385,341 385,342 384,343 384,344 383,345 383,346 381,348 381,349 380,350 380,351 379,352 379,353 378,354 378,355 377,356 377,357 376,358 376,359 375,360 375,361 374,362 374,363 373,364 373,365 372,366 372,367 370,369 370,370 369,371 369,372 368,373 368,374 367,375 367,376 366,377 366,378 365,379 365,380 364,381 364,382 363,383 363,384 362,385 362,386 361,387 361,388 360,389 360,390 359,391 359,392 358,393 358,394 357,395 357,396 356,397 356,398 355,399 355,400 354,401 354,402 353,403 353,404 352,405 352,406 351,407 351,408 350,409 350,410 349,411 349,412 347,414 347,415 346,416 346,418 344,420 344,421 343,422 343,423 342,424 342,425 341,426 341,427 340,428 340,429 339,430 339,431 338,432 338,433 337,434 337,435 336,436 336,437 335,438 335,439 334,440 334,441 333,442 333,443 332,444 332,445 331,446 331,447 330,448 330,449 329,450 329,451 328,452 328,453 327,454 327,455 326,456 326,457 325,458 325,459 324,460 324,461 323,462 323,463 322,464 322,465 321,466 321,467 320,468 320,469 319,470 319,471 318,472 318,473 317,474 317,475 316,476 316,478 315,479 315,480 314,481 314,482 313,483 313,484 312,485 312,486 311,487 311,489 310,490 310,491 309,492 309,493 308,494 308,495 307,496 307,498 306,499 306,500 305,501 305,502 304,503 304,505 303,506 303,507 302,508 302,510 301,511 301,512 300,513 300,515 299,516 299,517 298,518 298,519 297,520 297,522 296,523 296,524 295,525 295,526 294,527 294,528 293,529 293,530 289,534 288,534 286,536 283,536 282,537 275,537 274,538 255,538 254,537 250,537 249,536 248,536 246,534 246,532 245,531 245,529 244,528 240,528 239,529 238,529 234,533 234,541 235,542 235,543 236,544 236,545 240,549 241,549 243,551 245,551 246,552 248,552 249,553 277,553 278,552 282,552 283,553 282,554 282,555 281,556 281,557 280,558 280,559 279,560 279,562 278,563 278,564 277,565 277,566 276,567 276,568 275,569 275,571 274,572 274,573 273,574 273,575 272,576 272,577 271,578 271,580 270,581 270,582 269,583 269,584 268,585 268,586 267,587 267,589 266,590 266,591 265,592 265,593 264,594 264,595 263,596 263,598 262,599 262,600 261,601 261,602 260,603 260,605 259,606 259,607 258,608 258,610 257,611 257,612 256,613 256,615 255,616 255,617 254,618 254,619 253,620 253,622 252,623 252,624 251,625 251,627 250,628 250,629 249,630 249,632 248,633 248,635 247,636 247,637 246,638 246,640 245,641 245,643 244,644 244,645 243,646 243,648 242,649 242,651 241,652 241,654 240,655 240,656 239,657 239,659 238,660 238,662 237,663 237,664 236,665 236,667 235,668 235,670 234,671 234,672 233,673 233,675 232,676 232,678 231,679 231,680 230,681 230,683 229,684 229,686 228,687 228,688 227,689 227,691 226,692 226,694 225,695 225,696 224,697 224,699 223,700 223,702 222,703 222,706 221,707 221,709 220,710 220,724 221,725 221,726 223,728 224,728 225,729 232,729 233,728 234,728 234,727 236,725 236,724 237,723 237,717 238,716 238,714 239,713 239,711 240,710 240,709 241,708 241,706 242,705 242,703 243,702 243,700 244,699 244,698 245,697 245,695 246,694 246,692 247,691 247,689 248,688 248,686 249,685 249,684 250,683 250,681 251,680 251,678 252,677 252,675 253,674 253,673 254,672 254,670 255,669 255,667 256,666 256,665 257,664 257,662 258,661 258,659 259,658 259,657 260,656 260,654 261,653 261,651 262,650 262,649 263,648 263,646 264,645 264,644 265,643 265,641 266,640 266,639 267,638 267,636 268,635 268,634 269,633 269,631 270,630 270,629 271,628 271,626 272,625 272,624 273,623 273,621 274,620 274,619 275,618 275,616 276,615 276,614 277,613 277,612 278,611 278,609 279,608 279,607 280,606 280,604 281,603 281,602 282,601 282,600 283,599 283,597 284,596 284,595 285,594 285,593 286,592 286,590 287,589 287,588 288,587 288,586 289,585 289,584 290,583 290,582 291,581 291,579 292,578 292,577 293,576 293,575 294,574 294,573 295,572 295,570 296,569 296,568 297,567 297,566 298,565 298,564 299,563 299,562 300,561 300,559 301,558 301,557 302,556 302,555 303,554 303,553 304,552 304,550 305,549 305,548 307,546 310,546 311,545 314,545 315,544 317,544 318,543 321,543 322,542 324,542 325,541 327,541 328,540 330,540 331,539 333,539 334,538 336,538 337,537 339,537 340,536 342,536 343,535 345,535 346,534 347,534 348,533 350,533 351,532 352,532 353,531 354,531 355,530 357,530 358,529 359,529 360,528 361,528 362,527 363,527 364,526 365,526 366,525 368,525 369,524 370,524 371,523 372,523 373,522 374,522 375,521 376,521 378,519 379,519 380,518 381,518 382,517 383,517 384,516 385,516 387,514 388,514 389,513 390,513 392,511 393,511 394,510 395,510 397,508 398,508 400,506 401,506 403,504 404,504 406,502 407,502 409,500 410,500 412,498 413,498 415,496 416,496 419,493 420,493 422,491 423,491 426,488 427,488 430,485 431,485 435,481 436,481 440,477 441,477 445,473 446,473 453,466 454,466 483,437 483,436 490,429 490,428 495,423 495,422 498,419 498,418 501,415 501,414 504,411 504,410 506,408 506,407 508,405 508,404 510,402 510,401 512,399 512,398 514,396 514,395 515,394 515,393 517,391 517,390 518,389 518,388 520,386 520,385 521,384 521,383 522,382 522,381 523,380 523,379 525,377 525,376 526,375 526,374 527,373 527,372 528,371 528,370 529,369 529,367 530,366 530,365 531,364 531,363 532,362 532,361 533,360 533,358 534,357 534,356 535,355 535,354 536,353 536,351 537,350 537,349 538,348 538,346 539,345 539,343 540,342 540,340 541,339 541,337 542,336 542,333 543,332 543,329 544,328 544,325 545,324 545,321 546,320 546,316 547,315 547,292 546,291 546,288 545,287 545,284 544,283 544,281 543,280 543,279 542,278 542,276 541,275 541,274 539,272 539,271 538,270 538,269 527,258 526,258 524,256 523,256 522,255 521,255 520,254 519,254 518,253 517,253 516,252 515,252 514,251 512,251 511,250 509,250 508,249 506,249 505,248 501,248 500,247 491,247 490,246" /><polyline fill="white" points="732,221 731,222 729,222 728,223 727,223 726,224 725,224 720,229 719,229 710,238 710,239 705,244 705,245 701,249 701,250 698,253 698,254 695,257 695,258 693,260 693,261 690,264 690,265 688,267 688,268 686,270 686,271 684,273 684,274 682,276 682,277 680,279 680,280 678,282 678,283 676,285 676,286 675,287 675,288 673,290 673,291 672,292 672,293 671,294 671,295 669,297 669,298 668,299 668,300 667,301 667,302 665,304 665,305 664,306 664,307 663,308 663,309 661,311 661,312 660,313 660,314 659,315 659,316 658,317 658,318 657,319 657,320 655,322 655,323 654,324 654,325 653,326 653,327 652,328 652,329 651,330 651,331 650,332 650,333 649,334 649,335 648,336 648,337 647,338 647,339 646,340 646,341 645,342 645,343 644,344 644,345 642,347 642,348 641,349 641,350 640,351 640,352 639,353 639,354 638,355 638,356 637,357 637,358 636,359 636,360 635,361 635,362 634,363 634,364 633,365 633,366 632,367 632,368 631,369 631,371 630,372 630,373 629,374 629,375 628,376 628,377 627,378 627,379 626,380 626,381 625,382 625,383 624,384 624,385 623,386 623,387 622,388 622,389 621,390 621,391 620,392 620,393 619,394 619,395 618,396 618,397 617,398 617,400 616,401 616,402 615,403 615,404 614,405 614,406 613,407 613,409 612,410 612,411 611,412 611,414 610,415 610,416 609,417 609,418 608,419 608,421 607,422 607,423 606,424 606,425 605,426 605,428 604,429 604,430 603,431 603,433 602,434 602,436 601,437 601,438 600,439 600,441 599,442 599,443 598,444 598,446 597,447 597,449 596,450 596,451 595,452 595,454 594,455 594,456 593,457 593,459 592,460 592,461 591,462 591,464 590,465 590,466 589,467 589,469 588,470 588,471 586,473 585,473 578,480 577,480 574,483 573,483 571,485 570,485 568,487 567,487 566,488 565,488 563,490 562,490 561,491 560,491 558,493 557,493 556,494 555,494 554,495 553,495 551,497 550,497 549,498 548,498 547,499 546,499 545,500 544,500 543,501 542,501 541,502 540,502 539,503 537,503 536,504 535,504 534,505 533,504 533,502 534,501 534,498 535,497 535,493 536,492 536,474 535,473 535,471 534,470 534,468 533,467 533,466 531,464 531,463 526,458 525,458 523,456 521,456 520,455 508,455 507,456 505,456 504,457 503,457 501,459 500,459 491,468 491,469 489,471 489,472 488,473 488,474 487,475 487,476 486,477 486,478 474,490 474,491 468,497 468,498 464,502 464,503 461,506 461,507 459,509 459,510 457,512 457,513 455,515 455,516 454,517 454,518 452,520 452,521 451,522 451,523 450,524 450,525 449,526 449,527 448,528 448,529 447,530 447,532 446,533 446,534 445,535 445,537 444,538 444,540 443,541 443,543 442,544 442,547 441,548 441,552 440,553 440,566 441,567 441,570 442,571 442,573 443,574 443,575 444,576 444,577 445,578 445,579 449,583 450,583 452,585 454,585 455,586 458,586 459,587 469,587 470,586 473,586 474,585 476,585 477,584 478,584 479,583 480,583 481,582 482,582 483,581 484,581 486,579 487,579 492,574 493,574 498,569 498,568 502,564 502,563 506,559 506,558 508,556 508,555 510,553 510,552 512,550 512,549 514,547 514,546 515,545 515,544 517,542 517,541 518,540 518,539 520,537 520,536 521,535 521,534 523,532 523,531 524,530 524,529 525,528 525,527 529,523 536,523 537,522 539,522 540,521 542,521 543,520 545,520 546,519 547,519 548,518 549,518 550,517 551,517 552,516 553,516 554,515 555,515 556,514 557,514 558,513 559,513 561,511 562,511 563,510 564,510 566,508 567,508 569,506 570,506 571,505 572,505 574,503 575,503 577,501 578,501 579,502 578,503 578,508 577,509 577,512 576,513 576,516 575,517 575,522 574,523 574,528 573,529 573,536 572,537 572,553 573,554 573,560 574,561 574,563 575,564 575,566 576,567 576,568 578,570 578,571 584,577 585,577 586,578 587,578 588,579 589,579 590,580 592,580 593,581 604,581 605,580 608,580 609,579 611,579 612,578 614,578 615,577 616,577 617,576 619,576 620,575 621,575 622,574 623,574 624,573 625,573 627,571 628,571 629,570 630,570 632,568 633,568 635,566 636,566 639,563 640,563 643,560 644,560 649,555 650,555 669,536 669,535 677,527 677,526 678,525 679,526 679,535 680,536 680,539 681,540 681,543 682,544 682,545 683,546 683,547 684,548 684,549 690,555 691,555 692,556 693,556 694,557 697,557 698,558 712,558 713,557 715,557 716,556 718,556 719,555 721,555 722,554 723,554 724,553 725,553 726,552 727,552 728,551 729,551 731,549 732,549 735,546 736,546 748,534 748,533 751,530 751,529 754,526 754,525 756,523 756,522 758,520 758,519 759,518 759,517 761,515 761,514 763,512 763,511 764,510 764,509 765,508 765,507 767,505 767,504 768,503 768,502 769,501 769,500 771,498 776,498 777,497 781,497 782,496 786,496 787,495 790,495 791,494 794,494 795,493 798,493 799,492 801,492 802,491 805,491 806,490 808,490 809,489 810,489 811,488 813,488 814,487 816,487 817,486 818,486 819,485 821,485 822,484 823,484 824,483 826,483 827,482 828,482 829,481 830,481 831,480 832,480 833,479 834,479 835,478 837,478 838,477 839,477 840,476 841,476 842,475 843,475 845,473 846,473 847,472 848,472 849,471 850,471 851,470 852,470 854,468 855,468 857,466 858,466 860,464 861,464 868,457 868,456 869,455 869,450 868,449 868,448 867,448 866,447 862,447 861,448 860,448 859,449 858,449 857,450 856,450 855,451 853,451 852,452 851,452 850,453 849,453 848,454 847,454 846,455 844,455 843,456 842,456 841,457 840,457 839,458 838,458 837,459 836,459 835,460 834,460 833,461 832,461 831,462 830,462 829,463 827,463 826,464 825,464 824,465 823,465 822,466 820,466 819,467 818,467 817,468 816,468 815,469 813,469 812,470 810,470 809,471 808,471 807,472 805,472 804,473 802,473 801,474 799,474 798,475 796,475 795,476 793,476 792,477 790,477 789,478 787,478 786,479 783,479 782,480 779,480 778,481 777,480 777,478 778,477 778,474 779,473 779,470 780,469 780,463 781,462 781,452 780,451 780,447 779,446 779,444 778,443 778,441 776,439 776,438 771,433 770,433 768,431 767,431 766,430 765,430 764,429 762,429 761,428 757,428 756,427 749,427 748,428 742,428 741,429 739,429 738,430 736,430 735,431 734,431 733,432 732,432 730,434 729,434 725,438 725,439 723,441 723,442 722,443 722,445 721,446 721,448 720,449 720,452 719,453 719,454 705,468 705,469 699,475 699,476 693,482 693,483 689,487 689,488 684,493 684,494 679,499 679,500 674,505 674,506 666,514 666,515 642,539 641,539 636,544 635,544 632,547 631,547 629,549 628,549 626,551 625,551 623,553 622,553 621,554 620,554 618,556 617,556 616,557 615,557 614,558 613,558 612,559 610,559 609,560 608,560 607,561 605,561 604,562 602,562 601,563 594,563 593,562 593,561 592,560 592,559 591,558 591,555 590,554 590,537 591,536 591,528 592,527 592,523 593,522 593,517 594,516 594,513 595,512 595,508 596,507 596,504 597,503 597,500 598,499 598,496 599,495 599,492 600,491 600,488 601,487 601,485 603,483 603,482 633,452 633,451 642,442 642,441 648,435 648,434 654,428 654,427 658,423 658,422 662,418 662,417 665,414 665,413 668,410 668,409 671,406 671,405 674,402 674,401 676,399 676,398 678,396 678,395 681,392 681,391 683,389 683,388 685,386 685,385 686,384 686,383 688,381 688,380 690,378 690,377 691,376 691,375 693,373 693,372 694,371 694,370 696,368 696,367 697,366 697,365 698,364 698,363 700,361 700,360 701,359 701,358 702,357 702,356 704,354 704,353 705,352 705,351 706,350 706,349 707,348 707,347 708,346 708,345 709,344 709,343 710,342 710,341 711,340 711,339 713,337 713,336 714,335 714,334 715,333 715,332 716,331 716,330 717,329 717,328 718,327 718,326 719,325 719,324 720,323 720,322 721,321 721,320 722,319 722,318 723,317 723,316 724,315 724,314 725,313 725,312 726,311 726,309 727,308 727,307 728,306 728,305 729,304 729,303 730,302 730,301 731,300 731,299 732,298 732,297 733,296 733,295 734,294 734,293 735,292 735,290 736,289 736,288 737,287 737,286 738,285 738,284 739,283 739,282 740,281 740,280 741,279 741,277 742,276 742,275 743,274 743,273 744,272 744,270 745,269 745,268 746,267 746,265 747,264 747,263 748,262 748,260 749,259 749,256 750,255 750,253 751,252 751,247 752,246 752,236 751,235 751,232 750,231 750,230 749,229 749,228 745,224 744,224 743,223 742,223 741,222 739,222 738,221" /></svg>